<svg width="95" height="32" viewBox="0 0 95 32" fill="none" xmlns="http://www.w3.org/2000/svg">
<path d="M2.93676 15.0654L5.55044 0L15.8933 0.0166505V10.2878C15.8933 11.5636 15.3963 12.7627 14.4954 13.6672C13.5944 14.5697 12.3974 15.0655 11.1216 15.0655L2.93676 15.0654Z" fill="#0A3432"/>
<path d="M0 32L2.71102 16.3703L11.1237 16.3704C12.3974 16.3704 13.5965 16.8662 14.4974 17.7686C15.3983 18.671 15.8933 19.8722 15.8933 21.1481V31.998C15.7939 31.998 15.6904 31.998 15.5847 31.998L0 31.9979V32Z" fill="#0A3432"/>
<path d="M17.196 21.1481C17.196 19.8722 17.6931 18.6731 18.594 17.7686C19.4949 16.8662 20.692 16.3704 21.9677 16.3704H23.3036C24.8154 16.3704 26.2217 17.1628 26.9735 18.4408L26.988 18.4657C27.6632 19.6253 27.9531 21.0153 27.8537 22.6023C27.6528 25.5523 26.4868 27.8758 24.3867 29.5085C22.5787 30.9151 20.1597 31.7345 17.196 31.944V21.1481Z" fill="#0A3432"/>
<path d="M21.9657 15.0654C19.3354 15.0654 17.196 12.9224 17.196 10.2877V0.0186925L18.9274 0.0228425C22.6098 0.0373644 25.3974 0.786278 27.2158 2.24884C28.9907 3.67821 29.8067 5.72579 29.6369 8.33973C29.5416 9.84171 29.0632 11.1715 28.2161 12.2897C26.901 14.0282 24.7699 15.0654 22.5186 15.0654H21.9657Z" fill="#0A3432"/>
<path d="M43.0987 25V7.72H50.1547C54.4027 7.72 56.5387 9.52 56.5387 12.28C56.5387 13.888 55.8427 15.112 54.4267 15.88C56.2987 16.672 57.2587 18.16 57.2587 19.96C57.2587 23.152 55.1227 25 50.8747 25H43.0987ZM46.6027 22.096H50.8507C52.7707 22.096 53.6587 21.328 53.6587 19.84C53.6587 18.376 52.7707 17.608 50.8507 17.608H46.6027V22.096ZM46.6027 14.824H50.2507C52.1707 14.824 53.0587 14.056 53.0587 12.712C53.0587 11.392 52.1707 10.624 50.2507 10.624H46.6027V14.824ZM59.0551 25V12.52H62.2231V14.8C63.0391 13.048 64.3351 12.376 65.9431 12.376H66.9511V15.376H65.7991C63.6871 15.376 62.3191 16.264 62.3191 19.12V25H59.0551ZM68.7811 25V12.52H72.0451V25H68.7811ZM68.7811 10.624V7.72H72.0451V10.624H68.7811ZM90.1479 17.608C90.1479 16.168 89.5479 15.064 88.1079 15.064C86.9559 15.064 85.6119 15.808 85.6119 18.16V25H82.3479V17.608C82.3479 16.168 81.7239 15.064 80.3079 15.064C79.1559 15.064 77.7879 15.808 77.7879 18.16V25H74.5239V12.52H77.6919V14.296C78.4599 13.12 79.6359 12.232 81.4119 12.232C83.1159 12.232 84.4119 13.072 85.0839 14.536C85.9479 13.24 87.3399 12.232 89.2119 12.232C91.7799 12.232 93.4119 14.104 93.4119 17.224V25H90.1479V17.608Z" fill="#0A3432"/>
</svg>
