<svg width="225" height="30" viewBox="0 0 225 30" fill="none" xmlns="http://www.w3.org/2000/svg">
<g clip-path="url(#clip0_20_540)">
<path d="M0 14.51V0H14.51V3.95H3.95V14.51H0Z" fill="#E42317"/>
<path d="M14.6001 29.34C10.6501 29.34 6.93008 27.8 4.12008 25C2.05008 22.92 0.650078 20.32 0.0800781 17.45H4.01008C4.52008 19.28 5.49008 20.95 6.84008 22.29C8.90008 24.37 11.6601 25.51 14.6101 25.51C20.6701 25.51 25.6001 20.58 25.6001 14.52C25.6001 9.58 22.3001 5.24 17.5601 3.92V0C24.4501 1.39 29.4301 7.47 29.4301 14.52C29.4301 22.69 22.7801 29.34 14.6101 29.34" fill="#232323"/>
<path d="M14.4901 8.56H8.56006V14.49H14.4901V8.56Z" fill="#E42317"/>
<path d="M40.49 7.87H48.21V8.92H41.63V14.14H47.47V15.19H41.63V21.47H40.49V7.87Z" fill="#232323"/>
<path d="M55.8501 14.41C57.2601 14.41 58.1601 14.17 58.8201 13.62C59.4001 13.13 59.6801 12.47 59.6801 11.67C59.6801 10.68 59.2501 10 58.5701 9.55C57.8401 9.06 56.9401 8.93 55.4101 8.93H52.9901V14.41H55.8501ZM51.8501 7.87H55.4901C57.0701 7.87 58.2901 8.06 59.2501 8.68C60.1701 9.28 60.8301 10.26 60.8301 11.61C60.8301 12.85 60.2701 13.86 59.4001 14.48C58.7801 14.93 58.0501 15.16 57.2001 15.29L61.7501 21.47H60.3601L55.9301 15.38H53.0001V21.47H51.8501V7.87Z" fill="#232323"/>
<path d="M64.79 7.87H72.33V8.92H65.94V13.88H71.59V14.93H65.94V20.42H72.49V21.47H64.79V7.87Z" fill="#232323"/>
<path d="M75.67 19.23C76.87 20.19 78.43 20.6 79.69 20.6C81.51 20.6 82.84 19.72 82.84 17.95C82.84 15.94 81.09 15.51 79.33 15.02C77.38 14.48 75.46 13.76 75.46 11.3C75.46 8.96997 77.15 7.65997 79.61 7.65997C80.89 7.65997 82.37 8.01997 83.42 8.72997V9.96997C82.27 9.13997 80.81 8.72997 79.59 8.72997C77.82 8.72997 76.6 9.57997 76.6 11.23C76.6 13.17 78.31 13.56 80 14.03C81.93 14.58 83.98 15.29 83.98 17.9C83.98 20.29 82.23 21.68 79.68 21.68C78.33 21.68 76.77 21.29 75.66 20.53V19.23H75.67Z" fill="#232323"/>
<path d="M87.45 7.87H88.59V13.88H96.82V7.87H97.96V21.47H96.82V14.93H88.59V21.47H87.45V7.87Z" fill="#232323"/>
<path d="M112.56 20.7C111.43 21.36 109.97 21.68 108.58 21.68C104.32 21.68 101.31 18.67 101.31 14.71C101.31 10.75 104.24 7.66998 108.56 7.66998C109.95 7.66998 111.28 8.00998 112.35 8.56998V11.05C111.36 10.34 109.96 9.82998 108.56 9.82998C105.69 9.82998 103.7 11.92 103.7 14.68C103.7 17.44 105.67 19.51 108.7 19.51C110.15 19.51 111.48 19.02 112.57 18.19V20.71L112.56 20.7Z" fill="#232323"/>
<path d="M126.65 14.67C126.65 11.97 124.68 9.83997 122.03 9.83997C119.38 9.83997 117.41 11.96 117.41 14.67C117.41 17.38 119.38 19.5 122.03 19.5C124.68 19.5 126.65 17.38 126.65 14.67ZM115.02 14.67C115.02 10.71 118.03 7.65997 122.03 7.65997C126.03 7.65997 129.04 10.7 129.04 14.67C129.04 18.64 126.03 21.68 122.03 21.68C118.03 21.68 115.02 18.64 115.02 14.67Z" fill="#232323"/>
<path d="M132.04 21.47V7.87H134.29L139.21 14.42C140.06 15.55 140.84 16.62 141.63 17.71L141.67 17.69C141.63 16.41 141.63 15.02 141.63 13.58V7.87H143.94V21.47H141.69L136.77 14.91C135.92 13.78 135.14 12.71 134.35 11.62L134.31 11.64C134.35 12.92 134.35 14.31 134.35 15.75V21.46H132.04V21.47Z" fill="#232323"/>
<path d="M147.36 18.14C148.73 19.12 150.46 19.55 151.59 19.55C152.94 19.55 153.92 18.97 153.92 17.71C153.92 16.21 152.49 16 150.73 15.48C148.83 14.9 147.05 14.03 147.05 11.61C147.05 9.18998 148.89 7.66998 151.63 7.66998C152.95 7.66998 154.52 7.98998 155.67 8.65998V11.06C154.32 10.18 152.72 9.77998 151.61 9.77998C150.33 9.77998 149.43 10.29 149.43 11.43C149.43 12.88 150.86 13.06 152.49 13.57C154.5 14.19 156.3 15.07 156.3 17.57C156.3 20.07 154.38 21.67 151.57 21.67C150.24 21.67 148.6 21.31 147.36 20.64V18.14Z" fill="#232323"/>
<path d="M162.67 9.99H158.22V7.87H169.55V9.99H165.06V21.47H162.67V9.99Z" fill="#232323"/>
<path d="M176.5 14.01C177.59 14.01 178.32 13.86 178.87 13.46C179.3 13.14 179.57 12.67 179.57 12C179.57 11.19 179.19 10.68 178.59 10.37C177.99 10.05 177.24 9.99 176.05 9.99H174.6V14.01H176.5ZM172.22 7.87H176.18C177.57 7.87 178.92 7.96 179.99 8.55C181.1 9.15 181.94 10.24 181.94 11.86C181.94 13.7 180.83 15.13 178.92 15.6L183.02 21.48H180.22L176.43 15.86H174.61V21.48H172.22V7.87Z" fill="#232323"/>
<path d="M196.63 14.86C196.63 16.87 196.42 18.37 195.65 19.52C194.71 20.91 193 21.68 190.9 21.68C188.8 21.68 187.07 20.85 186.17 19.48C185.42 18.35 185.21 16.85 185.21 15.01V7.87H187.6V14.86C187.6 16.46 187.73 17.38 188.13 18.07C188.58 18.86 189.43 19.5 191 19.5C192.43 19.5 193.29 18.98 193.78 18.13C194.21 17.4 194.33 16.38 194.33 14.9V7.88H196.64V14.87L196.63 14.86Z" fill="#232323"/>
<path d="M210.78 20.7C209.65 21.36 208.19 21.68 206.8 21.68C202.54 21.68 199.53 18.67 199.53 14.71C199.53 10.75 202.46 7.66998 206.78 7.66998C208.17 7.66998 209.5 8.00998 210.57 8.56998V11.05C209.57 10.34 208.18 9.82998 206.78 9.82998C203.91 9.82998 201.91 11.92 201.91 14.68C201.91 17.44 203.88 19.51 206.91 19.51C208.36 19.51 209.69 19.02 210.78 18.19V20.71V20.7Z" fill="#232323"/>
<path d="M217.33 9.99H212.88V7.87H224.21V9.99H219.72V21.47H217.33V9.99Z" fill="#232323"/>
</g>
<defs>
<clipPath id="clip0_20_540">
<rect width="224.21" height="29.34" fill="#232323"/>
</clipPath>
</defs>
</svg>
