<svg width="105" height="33" viewBox="0 0 105 33" fill="none" xmlns="http://www.w3.org/2000/svg">
<path d="M19.3792 2.78534C31.8369 -1.54488 44.0273 1.12809 46.4867 8.77281C48.9462 16.4175 40.7658 26.1472 28.3081 30.4774C15.7969 34.8076 3.60649 32.1346 1.14703 24.4899C-1.31244 16.8452 6.86796 7.11556 19.3792 2.78534Z" fill="white"/>
<path d="M34.4567 15.3483C34.5637 15.3483 34.6706 15.3483 34.7775 15.4018C34.9379 15.4018 35.0983 15.2949 35.0983 15.081C35.0983 14.7068 35.0449 14.3861 34.9914 14.0118C34.9914 13.9049 34.8845 13.798 34.7775 13.7445C34.6706 13.6911 34.5637 13.6911 34.4567 13.6376C34.2429 13.5842 34.0825 13.7445 34.0825 13.9584C34.1359 14.3326 34.1359 14.6534 34.1894 15.0276C34.1894 15.1879 34.2963 15.2949 34.4567 15.3483Z" fill="#005CB9"/>
<path d="M34.4567 19.6251C34.5637 19.5716 34.6706 19.5716 34.7775 19.5181C34.8845 19.4647 34.9914 19.4112 34.9914 19.2509C35.0449 18.8766 35.0449 18.5559 35.0983 18.1817C35.0983 18.0213 34.9379 17.8609 34.7775 17.8609C34.6706 17.8609 34.5637 17.8609 34.4567 17.9144C34.2963 17.9144 34.1894 18.0213 34.1894 18.1817C34.1894 18.5559 34.1359 18.9301 34.0825 19.2509C34.0825 19.5181 34.2429 19.6785 34.4567 19.6251Z" fill="#005CB9"/>
<path d="M13.4443 16.6313C13.4443 16.4709 13.4443 16.2571 13.4443 16.0967C13.4443 15.9363 13.2839 15.7759 13.1235 15.7759C13.0166 15.7759 12.9097 15.7759 12.8027 15.7759C12.6423 15.7759 12.5354 15.9363 12.5354 16.0432C12.5354 16.2036 12.5354 16.4175 12.5354 16.5778C12.5354 16.7917 12.5354 16.9521 12.5354 17.1659C12.5354 17.3263 12.6423 17.4332 12.8027 17.4332C12.9097 17.4332 13.0166 17.4332 13.1235 17.4332C13.2839 17.4332 13.4443 17.3263 13.4443 17.1124C13.4443 17.0055 13.4443 16.7917 13.4443 16.6313Z" fill="#005CB9"/>
<path d="M32.532 12.8892C32.7993 12.9427 33.0132 12.9961 33.2805 13.0496C33.4944 13.103 33.6548 12.9427 33.6548 12.7288C33.6013 12.3011 33.5479 11.8735 33.4409 11.4458C33.4409 11.3389 33.334 11.232 33.2271 11.232C32.9597 11.1785 32.7459 11.0716 32.4785 11.0181C32.2647 10.9647 32.0508 11.125 32.1043 11.3389C32.1577 11.7665 32.2647 12.2477 32.3181 12.6754C32.3181 12.7823 32.3716 12.8892 32.532 12.8892Z" fill="#005CB9"/>
<path d="M14.9414 13.2634C14.6741 13.3168 14.4067 13.3703 14.1929 13.4237C14.0859 13.4237 13.979 13.5307 13.979 13.691C13.9255 14.1187 13.9255 14.4929 13.8721 14.9206C13.8721 15.081 14.0325 15.2414 14.1929 15.2414C14.4602 15.2414 14.6741 15.1879 14.9414 15.1879C15.1018 15.1879 15.2087 15.081 15.2087 14.9206C15.2087 14.4929 15.2622 14.0653 15.3157 13.6376C15.2622 13.4237 15.1018 13.2634 14.9414 13.2634Z" fill="#005CB9"/>
<path d="M14.888 18.1282C14.6207 18.1282 14.3533 18.0748 14.1395 18.0748C13.9791 18.0748 13.8187 18.1817 13.8187 18.3955C13.8187 18.8232 13.8721 19.2509 13.9256 19.6251C13.9256 19.732 14.0325 19.8389 14.1395 19.8924C14.4068 19.9459 14.6207 19.9993 14.888 20.0528C15.1019 20.1062 15.2623 19.9459 15.2623 19.732C15.2088 19.3043 15.2088 18.8767 15.1553 18.449C15.1553 18.2351 15.0484 18.1282 14.888 18.1282Z" fill="#005CB9"/>
<path d="M32.5319 16.6313C32.5319 16.8452 32.5319 17.1125 32.5319 17.3263C32.5319 17.4867 32.6923 17.6471 32.8527 17.6471C33.1201 17.6471 33.3874 17.5936 33.6013 17.5936C33.7617 17.5936 33.8686 17.4332 33.8686 17.3263C33.8686 17.1125 33.8686 16.8986 33.8686 16.6313C33.8686 16.4175 33.8686 16.2037 33.8686 16.0433C33.8686 15.8829 33.7617 15.776 33.6013 15.776C33.3339 15.776 33.0666 15.7225 32.8527 15.7225C32.6923 15.7225 32.5319 15.8295 32.5319 16.0433C32.5319 16.2037 32.5319 16.4175 32.5319 16.6313Z" fill="#005CB9"/>
<path d="M31.3557 9.84194C31.3022 9.57464 31.2488 9.3608 31.1953 9.09351C31.1953 8.98659 31.0884 8.87967 30.9814 8.87967C30.6072 8.77275 30.2329 8.66583 29.8052 8.55891C29.5913 8.50545 29.4309 8.71929 29.4309 8.87967C29.4844 9.14696 29.5378 9.3608 29.5378 9.6281C29.5378 9.73502 29.6448 9.84194 29.7517 9.8954C30.126 9.94886 30.5537 10.0558 30.928 10.1627C31.1953 10.2696 31.4092 10.0558 31.3557 9.84194Z" fill="#005CB9"/>
<path d="M16.3316 23.4207C16.385 23.688 16.4385 23.9019 16.492 24.1692C16.492 24.2761 16.5989 24.383 16.7058 24.383C17.0801 24.4899 17.4544 24.5968 17.8821 24.7037C18.096 24.7572 18.2564 24.5434 18.2564 24.383C18.2029 24.1157 18.1494 23.9019 18.1494 23.6346C18.1494 23.5276 18.0425 23.4207 17.9356 23.3673C17.5613 23.3138 17.1871 23.2069 16.8128 23.1C16.492 23.0465 16.2781 23.2069 16.3316 23.4207Z" fill="#005CB9"/>
<path d="M17.7217 12.2477C17.7751 11.7131 17.8286 11.2319 17.8821 10.7508C17.9355 10.537 17.7217 10.3766 17.5613 10.43C17.1335 10.4835 16.7593 10.5904 16.3315 10.6973C16.2246 10.7508 16.1177 10.8043 16.1177 10.9112C16.0107 11.3923 15.9573 11.8734 15.9038 12.3546C15.9038 12.5684 16.0642 12.7288 16.2246 12.6753C16.5989 12.6219 17.0266 12.5684 17.4543 12.515C17.6147 12.515 17.7217 12.408 17.7217 12.2477Z" fill="#005CB9"/>
<path d="M29.9121 21.0151C29.8586 21.5497 29.8051 22.0308 29.7517 22.5654C29.6982 22.7792 29.9121 22.9396 30.0725 22.8861C30.5002 22.8327 30.8745 22.7258 31.3022 22.6188C31.4091 22.5654 31.5161 22.5119 31.5161 22.405C31.623 21.9239 31.6765 21.4427 31.7299 20.9081C31.7299 20.6943 31.5695 20.5339 31.4091 20.5874C31.0349 20.6408 30.6071 20.6943 30.1794 20.7478C30.019 20.8012 29.9121 20.9081 29.9121 21.0151Z" fill="#005CB9"/>
<path d="M17.4543 20.7478C17.0266 20.6943 16.6523 20.6408 16.2246 20.5874C16.0107 20.5339 15.8503 20.6943 15.9038 20.9081C15.9573 21.3893 16.0642 21.9239 16.1177 22.405C16.1177 22.5119 16.2246 22.6188 16.3315 22.6188C16.7058 22.7258 17.1335 22.7792 17.5613 22.8861C17.7751 22.9396 17.9355 22.7792 17.8821 22.5654C17.8286 22.0843 17.7751 21.5497 17.7217 21.0151C17.7217 20.9081 17.6147 20.8012 17.4543 20.7478Z" fill="#005CB9"/>
<path d="M30.3398 20.3735C30.7676 20.3201 31.1953 20.2666 31.623 20.2132C31.7834 20.2132 31.8369 20.1062 31.8904 19.9459C31.9438 19.4647 31.9438 18.9836 31.9973 18.5025C31.9973 18.3421 31.8369 18.1817 31.6765 18.1817C31.2488 18.2352 30.821 18.2352 30.3933 18.2886C30.2329 18.2886 30.126 18.3955 30.126 18.5559C30.126 19.0371 30.0725 19.5716 30.019 20.0528C29.9656 20.2132 30.126 20.3735 30.3398 20.3735Z" fill="#005CB9"/>
<path d="M30.3932 15.0275C30.821 15.0275 31.2487 15.081 31.6764 15.081C31.8368 15.081 31.9972 14.9741 31.9972 14.7602C31.9972 14.2791 31.9438 13.798 31.8903 13.3168C31.8903 13.1565 31.7834 13.0495 31.623 13.0495C31.1952 12.9961 30.7675 12.9426 30.3398 12.8892C30.1794 12.8892 30.019 12.9961 30.019 13.2099C30.0724 13.6911 30.0724 14.1722 30.1259 14.7068C30.1259 14.8672 30.2328 15.0275 30.3932 15.0275Z" fill="#005CB9"/>
<path d="M17.5078 16.6313C17.5078 16.364 17.5078 16.1502 17.5078 15.8829C17.5078 15.7225 17.3474 15.5621 17.187 15.5621C16.7593 15.5621 16.3315 15.6156 15.9038 15.6156C15.7434 15.6156 15.6365 15.776 15.6365 15.8829C15.6365 16.0967 15.6365 16.364 15.6365 16.5779C15.6365 16.8452 15.6365 17.1125 15.6365 17.3263C15.6365 17.4867 15.7434 17.5936 15.9038 17.5936C16.3315 17.5936 16.7593 17.6471 17.187 17.6471C17.3474 17.6471 17.5078 17.5401 17.5078 17.3263C17.5078 17.1659 17.5078 16.8986 17.5078 16.6313Z" fill="#005CB9"/>
<path d="M18.9514 25.7194C19.0049 25.8797 19.0049 26.0401 19.0584 26.2005C19.0584 26.3074 19.1653 26.4143 19.2722 26.4143C19.7534 26.5213 20.2346 26.5747 20.7158 26.6282C20.9297 26.6282 21.0901 26.4678 21.0366 26.3074C21.0366 26.147 20.9832 25.9867 20.9832 25.8263C20.9832 25.6659 20.8762 25.6125 20.7158 25.559C20.2346 25.5055 19.7534 25.4521 19.2722 25.3452C19.0584 25.3452 18.898 25.5055 18.9514 25.7194Z" fill="#005CB9"/>
<path d="M26.918 24.0088C26.918 24.2761 26.8645 24.5434 26.811 24.8107C26.811 25.0245 26.9714 25.1849 27.1318 25.1314C27.6665 25.078 28.2012 24.971 28.6824 24.9176C28.7893 24.9176 28.8962 24.8107 28.8962 24.7038C28.9497 24.4365 29.0032 24.1692 29.0566 23.9019C29.1101 23.688 28.8962 23.5276 28.7358 23.5811C28.2012 23.6346 27.72 23.7415 27.1853 23.7949C27.0249 23.7415 26.918 23.8484 26.918 24.0088Z" fill="#005CB9"/>
<path d="M29.0566 9.41432C29.0031 9.14703 28.9497 8.87973 28.8962 8.61243C28.8962 8.50551 28.7893 8.39859 28.6823 8.39859C28.2011 8.29167 27.6665 8.23821 27.1318 8.18475C26.9179 8.18475 26.7575 8.34513 26.811 8.50551C26.8645 8.77281 26.8645 9.04011 26.9179 9.3074C26.9179 9.46778 27.0249 9.5747 27.1853 9.5747C27.7199 9.62816 28.2546 9.68162 28.7358 9.78854C28.9497 9.78854 29.1101 9.62816 29.0566 9.41432Z" fill="#005CB9"/>
<path d="M29.4309 12.0872C29.3774 11.5526 29.3239 11.0181 29.2705 10.4835C29.2705 10.3765 29.1635 10.2696 29.0031 10.2162C28.4685 10.1092 27.9338 10.0558 27.3457 10.0023C27.1853 10.0023 27.0249 10.1627 27.0249 10.3231C27.0783 10.8577 27.0783 11.3923 27.1318 11.9803C27.1318 12.1407 27.2387 12.2476 27.3991 12.2476C27.9873 12.3011 28.5754 12.3545 29.1101 12.408C29.2705 12.408 29.4309 12.2476 29.4309 12.0872Z" fill="#005CB9"/>
<path d="M18.2563 21.2289C18.3098 21.7635 18.3633 22.2981 18.4167 22.8327C18.4167 22.9396 18.5237 23.0465 18.6841 23.1C19.2187 23.2069 19.7534 23.2603 20.3415 23.3138C20.5019 23.3138 20.6623 23.1534 20.6623 22.9931C20.6089 22.4585 20.5554 21.9239 20.5554 21.3358C20.5554 21.1754 20.4485 21.0685 20.2881 21.0685C19.6999 21.015 19.1653 20.9616 18.5771 20.9081C18.3633 20.8547 18.2029 21.015 18.2563 21.2289Z" fill="#005CB9"/>
<path d="M20.5554 11.9803C20.6088 11.3923 20.6088 10.8577 20.6623 10.3231C20.6623 10.1627 20.5019 10.0023 20.3415 10.0023C19.7534 10.0558 19.2187 10.1092 18.684 10.2162C18.5771 10.2162 18.4702 10.3231 18.4167 10.4835C18.3633 11.0181 18.3098 11.5526 18.2563 12.0872C18.2563 12.2476 18.4167 12.408 18.5771 12.408C19.1118 12.3545 19.6999 12.3011 20.288 12.2476C20.395 12.2476 20.5554 12.0872 20.5554 11.9803Z" fill="#005CB9"/>
<path d="M20.1277 18.3954C19.5396 18.3954 18.9515 18.342 18.3633 18.342C18.2029 18.342 18.0425 18.5024 18.0425 18.6627C18.0425 19.1973 18.096 19.7319 18.1495 20.2665C18.1495 20.4269 18.2564 20.5338 18.4168 20.5338C19.0049 20.5873 19.5931 20.6407 20.1812 20.6942C20.3416 20.6942 20.502 20.5873 20.502 20.3734C20.502 19.8388 20.4485 19.3043 20.4485 18.7162C20.4485 18.5024 20.2881 18.3954 20.1277 18.3954Z" fill="#005CB9"/>
<path d="M27.1853 18.6628C27.1853 19.1974 27.1318 19.7854 27.1318 20.32C27.1318 20.4804 27.2922 20.6408 27.4526 20.6408C28.0407 20.5873 28.6289 20.5339 29.217 20.4804C29.3774 20.4804 29.4843 20.3735 29.4843 20.2131C29.5378 19.6785 29.5378 19.1439 29.5913 18.6093C29.5913 18.449 29.4309 18.2886 29.2705 18.2886C28.6823 18.2886 28.0942 18.342 27.5061 18.342C27.3457 18.3955 27.2387 18.5024 27.1853 18.6628Z" fill="#005CB9"/>
<path d="M27.5061 14.9207C28.0942 14.9207 28.6823 14.9742 29.2705 14.9742C29.4309 14.9742 29.5913 14.8138 29.5913 14.6534C29.5913 14.1188 29.5378 13.5842 29.4843 13.0496C29.4843 12.8892 29.3774 12.7823 29.217 12.7823C28.6289 12.7289 28.0407 12.6754 27.4526 12.6219C27.2922 12.6219 27.1318 12.7289 27.1318 12.9427C27.1318 13.4773 27.1853 14.0119 27.1853 14.6C27.2387 14.7603 27.3457 14.9207 27.5061 14.9207Z" fill="#005CB9"/>
<path d="M20.4485 14.6C20.4485 14.0654 20.502 13.4773 20.502 12.9427C20.502 12.7823 20.3416 12.6219 20.1812 12.6219C19.5931 12.6754 19.0049 12.7289 18.4168 12.7823C18.2564 12.7823 18.1495 12.8892 18.1495 13.0496C18.096 13.5842 18.096 14.1188 18.0425 14.6534C18.0425 14.8138 18.2029 14.9742 18.3633 14.9742C18.9515 14.9742 19.5396 14.9207 20.1277 14.9207C20.2881 14.9207 20.4485 14.7603 20.4485 14.6Z" fill="#005CB9"/>
<path d="M27.2388 16.6313C27.2388 16.9521 27.2388 17.2194 27.2388 17.5401C27.2388 17.7005 27.3992 17.8609 27.5596 17.8609C28.1477 17.8609 28.7893 17.8609 29.3774 17.8074C29.5378 17.8074 29.6448 17.7005 29.6448 17.5401C29.6448 17.2728 29.6448 16.9521 29.6448 16.6848C29.6448 16.4175 29.6448 16.1502 29.6448 15.8829C29.6448 15.7225 29.5378 15.6156 29.3774 15.6156C28.7893 15.6156 28.2012 15.5621 27.5596 15.5621C27.3992 15.5621 27.2388 15.6691 27.2388 15.8829C27.2388 16.0433 27.2388 16.3106 27.2388 16.6313Z" fill="#005CB9"/>
<path d="M20.395 16.6313C20.395 16.364 20.395 16.0967 20.395 15.776C20.395 15.6156 20.2346 15.4552 20.0742 15.4552C19.4861 15.4552 18.8445 15.4552 18.2563 15.5087C18.0959 15.5087 17.989 15.6156 17.989 15.776C17.989 16.0433 17.989 16.3106 17.989 16.5779C17.989 16.8451 17.989 17.1659 17.989 17.4332C17.989 17.5936 18.0959 17.7005 18.2563 17.7005C18.8445 17.7005 19.4326 17.754 20.0742 17.754C20.2346 17.754 20.395 17.647 20.395 17.4332C20.395 17.2194 20.395 16.8986 20.395 16.6313Z" fill="#005CB9"/>
<path d="M24.0843 26.0402C24.0843 26.2006 24.0843 26.361 24.0843 26.5748C24.0843 26.7352 24.2447 26.8956 24.4051 26.8956C24.8863 26.8956 25.314 26.8421 25.7952 26.8421C25.9556 26.8421 26.0625 26.7352 26.0625 26.5748C26.0625 26.4145 26.116 26.2541 26.116 26.0402C26.116 25.8799 26.0091 25.7195 25.7952 25.7195C25.314 25.7729 24.8863 25.7729 24.4051 25.7729C24.2447 25.7729 24.1377 25.8799 24.0843 26.0402Z" fill="#005CB9"/>
<path d="M26.116 7.27589C26.116 7.11551 26.0625 6.95513 26.0625 6.74129C26.0625 6.58091 25.9556 6.47399 25.7952 6.47399C25.3675 6.42053 24.8863 6.42053 24.4051 6.42053C24.2447 6.42053 24.0843 6.58091 24.0843 6.74129C24.0843 6.90167 24.0843 7.06205 24.0843 7.27589C24.0843 7.43626 24.1912 7.54318 24.3516 7.54318C24.8328 7.54318 25.2605 7.59664 25.7417 7.59664C25.9556 7.59664 26.116 7.43626 26.116 7.27589Z" fill="#005CB9"/>
<path d="M21.3574 24.1156C21.3574 24.3829 21.4109 24.7037 21.4109 24.971C21.4109 25.1313 21.5178 25.2383 21.6782 25.2383C22.1594 25.2917 22.6941 25.2917 23.1753 25.2917C23.3357 25.2917 23.4961 25.1848 23.4961 24.971C23.4961 24.7037 23.4961 24.3829 23.4961 24.1156C23.4961 23.9552 23.3892 23.8483 23.2288 23.8483C22.6941 23.8483 22.2129 23.7949 21.6782 23.7949C21.5178 23.7949 21.3574 23.9552 21.3574 24.1156Z" fill="#005CB9"/>
<path d="M23.4961 9.09353C23.4961 8.82623 23.4961 8.50547 23.4961 8.23818C23.4961 8.0778 23.3357 7.91742 23.1753 7.91742C22.6406 7.91742 22.1594 7.97088 21.6782 7.97088C21.5178 7.97088 21.4109 8.0778 21.4109 8.23818C21.4109 8.50547 21.3574 8.82623 21.3574 9.09353C21.3574 9.25391 21.5178 9.41429 21.6782 9.41429C22.1594 9.36083 22.6941 9.36083 23.2288 9.36083C23.3892 9.41429 23.4961 9.25391 23.4961 9.09353Z" fill="#005CB9"/>
<path d="M26.4368 11.8734C26.4368 11.2853 26.3833 10.7507 26.3299 10.1627C26.3299 10.0023 26.2229 9.89538 26.0625 9.89538C25.5279 9.84192 24.9932 9.84192 24.4051 9.84192C24.2447 9.84192 24.0843 9.94884 24.0843 10.1627C24.0843 10.6973 24.0843 11.2853 24.0843 11.8734C24.0843 12.0338 24.1912 12.1407 24.3516 12.1941C24.9397 12.1941 25.4744 12.1941 26.0625 12.2476C26.3299 12.1941 26.4368 12.0338 26.4368 11.8734Z" fill="#005CB9"/>
<path d="M24.1377 21.4426C24.1377 22.0307 24.1377 22.6188 24.1377 23.1533C24.1377 23.3137 24.2981 23.4741 24.4585 23.4741C24.9931 23.4741 25.5278 23.4206 26.0625 23.4206C26.2229 23.4206 26.3298 23.3137 26.3298 23.1533C26.3833 22.6188 26.3833 22.0307 26.4367 21.4426C26.4367 21.2823 26.2763 21.1219 26.1159 21.1219C25.5813 21.1219 24.9931 21.1753 24.405 21.1753C24.2981 21.1753 24.1377 21.2823 24.1377 21.4426Z" fill="#005CB9"/>
<path d="M21.1436 18.7163C21.1436 19.3043 21.197 19.8389 21.197 20.427C21.197 20.5873 21.304 20.6943 21.4644 20.6943C22.0525 20.6943 22.6406 20.7477 23.2288 20.7477C23.3892 20.7477 23.5496 20.6408 23.5496 20.427C23.5496 19.8924 23.5496 19.3043 23.5496 18.7163C23.5496 18.5559 23.3892 18.3955 23.2288 18.3955C22.6406 18.3955 22.0525 18.3955 21.4644 18.3955C21.2505 18.3955 21.1436 18.5559 21.1436 18.7163Z" fill="#005CB9"/>
<path d="M23.4961 14.5464C23.4961 13.9583 23.4961 13.4237 23.4961 12.8357C23.4961 12.6753 23.3357 12.5149 23.1753 12.5149C22.5871 12.5149 21.999 12.5149 21.4109 12.5684C21.2505 12.5684 21.1435 12.6753 21.1435 12.8357C21.1435 13.3702 21.0901 13.9583 21.0901 14.5464C21.0901 14.7067 21.197 14.8671 21.4109 14.8671C21.999 14.8671 22.5871 14.8671 23.1753 14.8671C23.3357 14.8671 23.4961 14.7067 23.4961 14.5464Z" fill="#005CB9"/>
<path d="M26.2763 15.4552C25.6882 15.4552 25.1001 15.4552 24.4585 15.4552C24.2981 15.4552 24.1377 15.5621 24.1377 15.776C24.1377 16.0433 24.1377 16.364 24.1377 16.6313C24.1377 16.9521 24.1377 17.2728 24.1377 17.5401C24.1377 17.7005 24.2981 17.8609 24.4585 17.8609C25.0466 17.8609 25.6882 17.8609 26.2763 17.8609C26.4367 17.8609 26.5437 17.754 26.5437 17.5936C26.5437 17.2728 26.5437 17.0055 26.5437 16.6848C26.5437 16.4175 26.5437 16.0967 26.5437 15.8294C26.5437 15.6156 26.4367 15.4552 26.2763 15.4552Z" fill="#005CB9"/>
<path d="M23.5496 5.67214C23.5496 5.83252 23.4427 5.9929 23.2823 5.9929C22.8011 5.9929 22.3733 6.04636 22.0525 6.04636C21.8921 6.04636 21.7317 5.88598 21.7317 5.7256C21.7317 5.56523 21.8387 5.45831 21.9991 5.45831C22.3199 5.45831 22.8545 5.40485 23.2288 5.40485C23.3892 5.40485 23.5496 5.51177 23.5496 5.67214Z" fill="#005CB9"/>
<path d="M23.5496 27.5905C23.5496 27.4301 23.4427 27.2698 23.2823 27.2698C22.8011 27.2698 22.3733 27.2163 22.0525 27.2163C21.8921 27.2163 21.7317 27.3767 21.7317 27.5371C21.7317 27.6974 21.8387 27.8044 21.9991 27.8044C22.3199 27.8044 22.8545 27.8578 23.2823 27.8578C23.4427 27.9113 23.5496 27.7509 23.5496 27.5905Z" fill="#005CB9"/>
<path d="M24.1377 2.67838C23.7634 2.73184 23.7634 3.26644 24.1377 3.3199C30.0725 4.65638 31.6765 10.0023 35.4191 12.5149C36.2746 13.103 37.237 13.4772 38.3598 13.691C38.6806 13.7445 38.9479 14.0653 38.9479 14.386C38.8945 20.2131 30.3933 21.8169 29.3239 28.2855C29.2705 28.5528 29.5378 28.7666 29.8051 28.6597C41.7817 23.4207 47.0749 15.2414 45.1501 9.14699C43.9203 5.13752 37.6647 -0.208434 24.1377 2.67838Z" fill="#FFBF3C"/>
<path d="M23.4961 30.6378C23.8703 30.5843 23.8703 30.0498 23.4961 29.9428C17.5613 28.6063 15.9573 23.2604 12.2146 20.7478C11.3591 20.1597 10.3967 19.7855 9.27395 19.5717C8.95315 19.5182 8.68582 19.1975 8.68582 18.8767C8.73928 13.0496 17.2405 11.4458 18.3098 4.97722C18.4167 4.70993 18.1494 4.49609 17.8821 4.60301C5.85208 9.8955 0.612352 18.0214 2.53715 24.1692C3.76688 28.1252 10.2898 33.4177 23.4961 30.6378Z" fill="#009845"/>
<path d="M31.0883 0.807349C27.3457 0.807349 23.3357 1.50232 19.3791 2.83881C6.92142 7.16904 -1.20551 16.8452 1.25396 24.4365C2.05595 26.9491 3.98075 28.9805 6.76102 30.4239C12.1611 33.1504 20.395 33.0969 28.2546 30.3705C40.7123 26.0403 48.8393 16.3641 46.3798 8.77282C45.6313 6.31368 43.7065 4.22876 40.8727 2.83881C38.1994 1.50232 34.7775 0.807349 31.0883 0.807349ZM16.5454 32.6158C12.8027 32.6158 9.38088 31.9208 6.65409 30.5843C3.82035 29.1409 1.84209 27.056 1.04009 24.4899C-1.41938 16.8452 6.81449 7.06212 19.3257 2.67843C27.2387 -0.0480033 35.5261 -0.0480033 40.9797 2.67843C43.8134 4.12184 45.7917 6.20676 46.5937 8.77282C49.0531 16.4175 40.8727 26.2006 28.3081 30.5843C24.3515 31.9208 20.3415 32.6158 16.5454 32.6158Z" fill="#CCDBF1"/>
<path d="M59.7465 24.2226L60.495 8.82623H67.713C69.2101 11.713 70.5467 14.5999 71.8299 17.4332C71.8299 17.4332 72.1508 11.713 72.2042 8.82623H77.4974L76.7489 24.2226H69.8517C68.3546 21.3892 66.8576 18.5559 65.6278 15.8294L65.307 24.2226H59.7465Z" fill="#005CB9"/>
<path d="M86.3729 13.5307C86.3729 12.8357 87.6026 12.7823 88.0304 12.7823C89.0997 12.7823 90.2225 12.9961 91.1849 13.3703L90.971 9.0401C89.474 8.7728 87.9769 8.61242 86.4798 8.66588C81.7213 8.7728 80.2242 11.1785 80.2777 13.2099C80.3846 16.8987 85.464 18.2886 85.464 19.7855C85.464 20.4804 84.2342 20.4804 83.753 20.5339C82.4698 20.5874 81.1332 20.2131 80.0104 19.7855L79.7965 24.2226C81.347 24.4364 83.4857 24.7572 85.0897 24.7037C90.169 24.5968 91.6126 21.9773 91.5592 19.732C91.5057 16.471 86.3729 14.9207 86.3729 13.5307Z" fill="#005CB9"/>
<path d="M99.4188 13.5307C99.4188 12.8357 100.649 12.7823 101.076 12.7823C102.146 12.7823 103.268 12.9961 104.231 13.3703L104.017 9.0401C102.52 8.7728 101.023 8.61242 99.5257 8.66588C94.7672 8.7728 93.2701 11.1785 93.3236 13.2099C93.4305 16.8987 98.5099 18.2886 98.5099 19.7855C98.5099 20.4804 97.2801 20.4804 96.7989 20.5339C95.5157 20.5874 94.1791 20.2131 93.0563 19.7855L92.8424 24.2226C94.3929 24.4364 96.5316 24.7572 98.1356 24.7037C103.215 24.5968 104.659 21.9773 104.605 19.732C104.552 16.471 99.4723 14.9207 99.4188 13.5307Z" fill="#005CB9"/>
<path d="M50.2294 24.3295L50.9245 8.93317H57.1801L56.485 24.3295H50.2294Z" fill="#005CB9"/>
</svg>
