<svg width="72" height="36" viewBox="0 0 72 36" fill="none" xmlns="http://www.w3.org/2000/svg">
<g clip-path="url(#clip0_327_8703)">
<path fill-rule="evenodd" clip-rule="evenodd" d="M0.275116 35.1164H35.7004L70.369 0.633606H0.275116V35.1164Z" fill="url(#paint0_linear_327_8703)"/>
<path fill-rule="evenodd" clip-rule="evenodd" d="M41.8725 7.53018H34.9499L34.973 23.7218L28.945 7.52482H22.9678L17.8221 21.052C17.275 17.6099 13.6966 16.4221 10.881 15.5325C9.02163 14.9386 7.04825 14.065 7.06829 13.0995C7.0837 12.3072 8.12394 11.5723 10.1913 11.6819C11.5783 11.7562 12.8035 11.8673 15.2407 13.0382L17.6372 8.88497C15.4149 7.76007 12.3419 7.04972 9.82224 7.04742H9.80683C6.86872 7.04742 4.42222 7.99378 2.90578 9.55317C1.84858 10.6413 1.27837 12.0252 1.25526 13.5555C1.21673 15.6612 1.99267 17.1539 3.62316 18.347C5.0009 19.3509 6.76315 20.0022 8.31581 20.4804C10.2306 21.0704 11.7948 21.5838 11.7756 22.6765C11.7602 23.075 11.6091 23.4474 11.321 23.7478C10.8432 24.2382 10.1112 24.4221 9.09792 24.4421C7.14303 24.4834 5.6944 24.1777 3.38583 22.8206L1.25372 27.0275C3.55997 28.3317 6.00801 28.9861 8.7897 28.9861L9.41539 28.9815C11.8365 28.9378 13.8014 28.3608 15.3625 27.1118C15.4519 27.0405 15.532 26.9685 15.6152 26.8957L15.3532 28.2382L21.194 28.2198L22.242 25.5516C23.3439 25.9256 24.5968 26.1325 25.9267 26.1325C27.2228 26.1325 28.4418 25.9363 29.5229 25.5838L30.2534 28.2198L40.7329 28.2298L40.7583 22.147H42.9883C48.3783 22.147 51.5645 19.4191 51.5645 14.8444C51.563 9.74934 48.4653 7.53018 41.8725 7.53018ZM25.9267 21.3708C25.1215 21.3708 24.3664 21.2313 23.7168 20.9861L25.9021 14.1241H25.9445L28.0943 21.0053C27.447 21.2352 26.7104 21.3708 25.9267 21.3708ZM42.2778 17.4283H40.7568V11.898H42.2786C44.3051 11.898 45.9233 12.5693 45.9233 14.6275C45.9218 16.7578 44.3051 17.4283 42.2786 17.4283" fill="white"/>
</g>
<defs>
<linearGradient id="paint0_linear_327_8703" x1="35.3221" y1="0.633606" x2="35.3221" y2="35.1171" gradientUnits="userSpaceOnUse">
<stop stop-color="#00AEEF"/>
<stop offset="0.212" stop-color="#0097DC"/>
<stop offset="0.519" stop-color="#007CC5"/>
<stop offset="0.792" stop-color="#006CB8"/>
<stop offset="1" stop-color="#0066B3"/>
</linearGradient>
<clipPath id="clip0_327_8703">
<rect width="70.8906" height="34.4828" fill="white" transform="translate(0.275116 0.633606)"/>
</clipPath>
</defs>
</svg>
